<svg width="46" height="32" viewBox="0 0 46 32" fill="white" xmlns="http://www.w3.org/2000/svg">
<path d="M45.9081 15.5489C41.9937 6.34547 33.0015 0.398438 23 0.398438C12.9985 0.398438 4.00649 6.34529 0.0919102 15.5489C-0.0306367 15.8369 -0.0306367 16.1622 0.0919102 16.4503C4.00622 25.6548 12.9983 31.6023 23 31.6023C33.0019 31.6023 41.994 25.6548 45.9081 16.4503C46.0306 16.1622 46.0306 15.8369 45.9081 15.5489ZM23 29.2992C14.088 29.2992 6.05933 24.0953 2.40862 15.9997C6.05942 7.90497 14.0883 2.70158 23 2.70158C31.9119 2.70158 39.9407 7.90497 43.5914 15.9995C39.9407 24.0951 31.912 29.2992 23 29.2992Z" fill="white"/>
</svg>

