<svg width="245.29999999999998px" height="124.39999999999999px" xmlns="http://www.w3.org/2000/svg" viewBox="127.35000000000001 12.800000000000004 245.29999999999998 124.39999999999999" style="background: rgb(253, 253, 253);" preserveAspectRatio="xMidYMid"><defs><filter id="editing-neon" x="-100%" y="-100%" width="300%" height="300%"><feFlood flood-color="#85a2b6" result="flood"></feFlood><feComposite operator="in" in="flood" in2="SourceAlpha" result="color"></feComposite><feFlood flood-color="#85a2b6" result="flood2"></feFlood><feComposite operator="in" in="flood2" in2="SourceAlpha" result="color2"></feComposite><feMorphology operator="dilate" radius="2" in="color" result="dilate"></feMorphology><feGaussianBlur stdDeviation="6" in="color" result="blur1"></feGaussianBlur><feGaussianBlur stdDeviation="2.5" in="color" result="blur2"></feGaussianBlur><feGaussianBlur stdDeviation="1" in="SourceAlpha" result="blur3"></feGaussianBlur><feGaussianBlur stdDeviation="6" in="dilate" result="blur4"></feGaussianBlur><feConvolveMatrix in="color2" result="conv" order="3,3" divisor="1" kernelMatrix="1 1 1  1 1 1  1 1 1"></feConvolveMatrix><feMerge><feMergeNode in="blur1"></feMergeNode><feMergeNode in="blur2"></feMergeNode><feMergeNode in="blur4"></feMergeNode><feMergeNode in="blur3"></feMergeNode><feMergeNode in="blur3"></feMergeNode><feMergeNode in="blur3"></feMergeNode><feMergeNode in="blur3"></feMergeNode><feMergeNode in="conv"></feMergeNode><feMergeNode in="SourceGraphic"></feMergeNode></feMerge></filter></defs><g filter="url(#editing-neon)"><g transform="translate(166.84000873565674, 91.6400032043457)"><path d="M34.56-27.13L34.56 0L28.41 0L28.41-27.13L11.25-27.13L11.25 0L5.13 0L5.13-33.28L11.25-33.28L11.25-27.41L11.25-27.41Q11.31-28.63 11.81-29.70L11.81-29.70L11.81-29.70Q12.31-30.78 13.14-31.58L13.14-31.58L13.14-31.58Q13.97-32.38 15.06-32.83L15.06-32.83L15.06-32.83Q16.16-33.28 17.41-33.28L17.41-33.28L28.41-33.28L28.41-33.28Q29.69-33.28 30.81-32.80L30.81-32.80L30.81-32.80Q31.94-32.31 32.77-31.48L32.77-31.48L32.77-31.48Q33.59-30.66 34.08-29.53L34.08-29.53L34.08-29.53Q34.56-28.41 34.56-27.13L34.56-27.13ZM72.97-27.13L72.97-13.50L50.94-13.50L50.94-6.16L72.97-6.16L72.97 0L50.94 0L50.94 0Q49.69 0 48.56-0.48L48.56-0.48L48.56-0.48Q47.44-0.97 46.61-1.80L46.61-1.80L46.61-1.80Q45.78-2.63 45.30-3.75L45.30-3.75L45.30-3.75Q44.81-4.88 44.81-6.16L44.81-6.16L44.81-27.13L44.81-27.13Q44.81-28.41 45.30-29.53L45.30-29.53L45.30-29.53Q45.78-30.66 46.61-31.48L46.61-31.48L46.61-31.48Q47.44-32.31 48.56-32.80L48.56-32.80L48.56-32.80Q49.69-33.28 50.94-33.28L50.94-33.28L66.81-33.28L66.81-33.28Q68.09-33.28 69.22-32.80L69.22-32.80L69.22-32.80Q70.34-32.31 71.17-31.48L71.17-31.48L71.17-31.48Q72-30.66 72.48-29.53L72.48-29.53L72.48-29.53Q72.97-28.41 72.97-27.13L72.97-27.13ZM66.81-27.13L50.94-27.13L50.94-19.66L66.81-19.66L66.81-27.13ZM96.53 0L90.13 0L79.38-33.28L85.59-33.28L93.47-8.19L100.81-33.28L107.09-33.28L114.44-8.19L122.31-33.28L128.53-33.28L117.78 0L111.38 0L103.94-24.44L96.53 0ZM134.28-6.16L155.03-6.16L155.03-13.88L140.44-13.88L140.44-13.88Q139.16-13.88 138.03-14.36L138.03-14.36L138.03-14.36Q136.91-14.84 136.08-15.67L136.08-15.67L136.08-15.67Q135.25-16.50 134.77-17.63L134.77-17.63L134.77-17.63Q134.28-18.75 134.28-20.03L134.28-20.03L134.28-27.13L134.28-27.13Q134.28-28.41 134.77-29.53L134.77-29.53L134.77-29.53Q135.25-30.66 136.08-31.48L136.08-31.48L136.08-31.48Q136.91-32.31 138.03-32.80L138.03-32.80L138.03-32.80Q139.16-33.28 140.44-33.28L140.44-33.28L159.91-33.28L159.91-27.13L140.44-27.13L140.44-20.03L155.03-20.03L155.03-20.03Q156.31-20.03 157.42-19.55L157.42-19.55L157.42-19.55Q158.53-19.06 159.38-18.23L159.38-18.23L159.38-18.23Q160.22-17.41 160.70-16.28L160.70-16.28L160.70-16.28Q161.19-15.16 161.19-13.88L161.19-13.88L161.19-6.16L161.19-6.16Q161.19-4.88 160.70-3.75L160.70-3.75L160.70-3.75Q160.22-2.63 159.38-1.80L159.38-1.80L159.38-1.80Q158.53-0.97 157.42-0.48L157.42-0.48L157.42-0.48Q156.31 0 155.03 0L155.03 0L134.28 0L134.28-6.16Z" fill="none" stroke="#ffffff" stroke-width="0.3"></path></g></g><style>text {
  font-size: 64px;
  font-family: Arial Black;
  dominant-baseline: central;
  text-anchor: middle;
}</style></svg>