<?xml version="1.0" encoding="iso-8859-1"?>
<svg version="1.1" id="Capa_1" xmlns="http://www.w3.org/2000/svg" xmlns:xlink="http://www.w3.org/1999/xlink" x="0px" y="0px"
	 viewBox="0 0 50.994 50.994" style="enable-background:new 0 0 50.994 50.994;" xml:space="preserve">
<g id="sound_1_">
	<g>
		<path d="M0,16.498v18.004l10.996-0.005l19,13v-44L11.034,16.498H0z M25.996,40.497l-15-10l-6.984,0.005V20.498l6.984-0.001l15-10
			V40.497z M35.106,16.422c1.792,2.581,2.848,5.706,2.848,9.075c0,3.369-1.057,6.494-2.848,9.075l3.492,2.01
			c2.125-3.173,3.368-6.984,3.368-11.085c-0.001-4.102-1.243-7.912-3.368-11.085L35.106,16.422z M46.8,9.691l-3.483,2.005
			c2.327,4.076,3.664,8.785,3.665,13.801c-0.001,5.017-1.338,9.725-3.665,13.801l3.483,2.005c2.664-4.664,4.194-10.055,4.194-15.806
			C50.993,19.746,49.464,14.355,46.8,9.691z" fill="#CCC"/>
	</g>
</g>
<g>
</g>
<g>
</g>
<g>
</g>
<g>
</g>
<g>
</g>
<g>
</g>
<g>
</g>
<g>
</g>
<g>
</g>
<g>
</g>
<g>
</g>
<g>
</g>
<g>
</g>
<g>
</g>
<g>
</g>
</svg>
